<svg xmlns="http://www.w3.org/2000/svg" viewBox="0 0 512.009 512.009">
  <path fill="#757482" d="m432.009,176.004h-63.702l-118.415-162.82c-6.023-8.281-15.648-13.18-25.883-13.18h-16c-17.672,0-32.004,14.328-32.004,32v16h-15.996c-17.672,0-32,14.328-32,32s14.328,32 32,32h15.996v64h-69.332l-55.461-41.602c-0.012,0.014-0.021,0.02-0.032,0.035-8.122-6.066-18.969-8.219-29.288-4.793-16.766,5.594-25.828,23.711-20.242,40.477l28.625,85.883-28.626,85.883c-5.586,16.766 3.477,34.883 20.242,40.477 3.351,1.117 6.766,1.648 10.125,1.648 6.982,0 13.646-2.398 19.13-6.508 0.023,0.039 0.041,0.064 0.066,0.102l55.461-41.602h69.332v64h-15.996c-17.672,0-32,14.328-32,32 0,17.672 14.328,32 32,32h15.996v16c0,17.672 14.332,32 32.004,32h16c10.234,0 19.859-4.898 25.883-13.18l118.415-162.82h63.702c44.109,0 80-35.891 80-80s-35.891-80-80-80z" />
</svg>